<svg version="1.1" id="Icons" xmlns="http://www.w3.org/2000/svg" xmlns:xlink="http://www.w3.org/1999/xlink" x="0px" y="0px" viewBox="0 0 32 32" style="enable-background:new 0 0 32 32;" xml:space="preserve">
<path d="M21,3H11c-5,0-9,4-9,9v17c0,0.4,0.2,0.7,0.6,0.9C2.7,30,2.9,30,3,30c0.2,0,0.5-0.1,0.7-0.2c3.5-3.1,8-4.8,12.6-4.8H21
	c5,0,9-4,9-9v-4C30,7,26,3,21,3z M14,17h-4c-0.6,0-1-0.4-1-1s0.4-1,1-1h4c0.6,0,1,0.4,1,1S14.6,17,14,17z M19,13h-9
	c-0.6,0-1-0.4-1-1s0.4-1,1-1h9c0.6,0,1,0.4,1,1S19.6,13,19,13z" id="id_101" style="fill: rgb(255, 255, 255);"></path>
</svg>