<svg width="40" height="40" viewBox="0 0 40 40" fill="none" xmlns="http://www.w3.org/2000/svg">
<rect x="11" y="11" width="18" height="18" rx="4" fill="#4E4E4E"/>
<path d="M19.835 15C20.2919 15 20.6675 15.3486 20.7101 15.7944L20.7141 15.8791L20.7139 18.9555L23.7909 18.9559C24.2764 18.9559 24.67 19.3495 24.67 19.835C24.67 20.2919 24.3214 20.6675 23.8756 20.7101L23.7909 20.7141L20.7139 20.7139L20.7141 23.7909C20.7141 24.2764 20.3205 24.67 19.835 24.67C19.3781 24.67 19.0025 24.3214 18.9599 23.8756L18.9559 23.7909L18.9555 20.7139L15.8791 20.7141C15.3936 20.7141 15 20.3205 15 19.835C15 19.3781 15.3486 19.0025 15.7944 18.9599L15.8791 18.9559L18.9555 18.9555L18.9559 15.8791C18.9559 15.3936 19.3495 15 19.835 15Z" fill="white"/>
<rect x="0.5" y="0.5" width="39" height="39" rx="9.5" stroke="#EFEFEF"/>
</svg>
