<svg width="40" height="40" viewBox="0 0 40 40" fill="none" xmlns="http://www.w3.org/2000/svg">
<path d="M20.0073 20.752C20.3809 20.752 20.6885 20.4443 20.6885 20.0781V12.7466L20.6372 11.6626L21.084 12.1973L22.1094 13.2886C22.2266 13.4204 22.395 13.4863 22.5635 13.4863C22.9004 13.4863 23.1787 13.2446 23.1787 12.9004C23.1787 12.7173 23.1055 12.5854 22.981 12.4609L20.5273 10.0952C20.3516 9.91943 20.1831 9.86084 20.0073 9.86084C19.8242 9.86084 19.6631 9.91943 19.48 10.0952L17.0264 12.4609C16.9019 12.5854 16.8286 12.7173 16.8286 12.9004C16.8286 13.2446 17.0996 13.4863 17.4365 13.4863C17.605 13.4863 17.7808 13.4204 17.8979 13.2886L18.9233 12.1973L19.3774 11.6553L19.3188 12.7466V20.0781C19.3188 20.4443 19.6265 20.752 20.0073 20.752ZM15.7812 26.5674H24.2114C25.8008 26.5674 26.6211 25.7471 26.6211 24.1797V17.0679C26.6211 15.5005 25.8008 14.6802 24.2114 14.6802H22.2339V16.1377H24.1162C24.79 16.1377 25.1636 16.4893 25.1636 17.1924V24.0479C25.1636 24.7583 24.79 25.1099 24.1162 25.1099H15.8691C15.1953 25.1099 14.8291 24.7583 14.8291 24.0479V17.1924C14.8291 16.4893 15.1953 16.1377 15.8691 16.1377H17.7734V14.6802H15.7812C14.1919 14.6802 13.3643 15.4932 13.3643 17.0679V24.1797C13.3643 25.7471 14.1919 26.5674 15.7812 26.5674Z" fill="#4E4E4E"/>
<rect x="0.5" y="0.5" width="39" height="39" rx="9.5" stroke="#EFEFEF"/>
</svg>
