<svg width="40" height="40" viewBox="0 0 40 40" fill="none" xmlns="http://www.w3.org/2000/svg">
<path d="M15.5742 24H16.6816L13.5645 15.5449H12.5215L9.4043 24H10.5117L11.3613 21.5801H14.7246L15.5742 24ZM12.9961 16.9102H13.0898L14.4141 20.6836H11.6719L12.9961 16.9102ZM19.6135 24.1113C20.4865 24.1113 21.2365 23.6953 21.635 22.9922H21.7287V24H22.6897V15.1758H21.6818V18.6797H21.594C21.2365 17.9883 20.4924 17.5723 19.6135 17.5723C18.008 17.5723 16.9592 18.8613 16.9592 20.8418C16.9592 22.8281 17.9963 24.1113 19.6135 24.1113ZM19.8479 18.4805C20.9904 18.4805 21.7053 19.3945 21.7053 20.8418C21.7053 22.3008 20.9963 23.2031 19.8479 23.2031C18.6936 23.2031 18.0022 22.3184 18.0022 20.8418C18.0022 19.3711 18.6994 18.4805 19.8479 18.4805ZM26.5766 24.1113C27.4496 24.1113 28.1996 23.6953 28.5981 22.9922H28.6918V24H29.6528V15.1758H28.6449V18.6797H28.557C28.1996 17.9883 27.4555 17.5723 26.5766 17.5723C24.9711 17.5723 23.9223 18.8613 23.9223 20.8418C23.9223 22.8281 24.9594 24.1113 26.5766 24.1113ZM26.811 18.4805C27.9535 18.4805 28.6684 19.3945 28.6684 20.8418C28.6684 22.3008 27.9594 23.2031 26.811 23.2031C25.6567 23.2031 24.9653 22.3184 24.9653 20.8418C24.9653 19.3711 25.6625 18.4805 26.811 18.4805Z" fill="#007AFF"/>
<rect x="0.5" y="0.5" width="39" height="39" rx="9.5" stroke="#EFEFEF"/>
</svg>
