<svg version="1.1" id="Uploaded to svgrepo.com" xmlns="http://www.w3.org/2000/svg" xmlns:xlink="http://www.w3.org/1999/xlink" x="0px" y="0px"
	 width="32px" height="32px" viewBox="0 0 32 32" style="enable-background:new 0 0 32 32;" xml:space="preserve">
<style type="text/css">
	.linesandangles_een{fill:#111918;}
</style>
<path class="linesandangles_een" d="M10.5,8v2C9.122,10,8,11.121,8,12.5H6C6,10.019,8.019,8,10.5,8z"/>
<path class="linesandangles_een" d="M21.5,5c-2.116,0-4.093,0.881-5.5,2.406C14.593,5.881,12.616,5,10.5,5C6.364,5,3,8.333,3,12.5
	C3,21.542,16,27,16,27s13-5.458,13-14.5C29,8.333,25.636,5,21.5,5z M16,24.797C13.378,23.521,5,18.938,5,12.5
	C5,9.467,7.467,7,10.5,7c1.55,0,2.982,0.626,4.03,1.762l0.735,0.797h1.47l0.735-0.797C18.518,7.626,19.95,7,21.5,7
	c3.033,0,5.5,2.467,5.5,5.5C27,18.938,18.622,23.521,16,24.797z"/>
</svg>