<?xml version="1.0" encoding="UTF-8"?>
<svg  viewBox="0 0 48 27" version="1.1" xmlns="http://www.w3.org/2000/svg" xmlns:xlink="http://www.w3.org/1999/xlink">
    <!-- Generator: Sketch 49.2 (51160) - http://www.bohemiancoding.com/sketch -->
    <title>Soundcloud</title>
    <desc>Created with Sketch.</desc>
    <defs></defs>
    <g id="Page-1" stroke="none" stroke-width="1" fill="none" fill-rule="evenodd">
        <g id="Social-Icons---Isolated" transform="translate(-52.000000, -850.000000)" fill="#FF4300">
            <path d="M52,872.152608 C52,872.756664 52.2159449,873.213396 52.6477431,873.52299 C53.0795872,873.832537 53.5411819,873.941985 54.0325733,873.851428 C54.4941681,873.760824 54.8180397,873.594702 55.0042338,873.353108 C55.1903363,873.111513 55.2834334,872.711316 55.2834334,872.152608 L55.2834334,865.583839 C55.2834334,865.115689 55.1233742,864.719298 54.80321,864.394665 C54.4830916,864.069986 54.0922122,863.90767 53.6305716,863.90767 C53.1838522,863.90767 52.8004333,864.069986 52.4802691,864.394665 C52.160105,864.719298 52,865.115689 52,865.583839 L52,872.152608 L52,872.152608 Z M57.1372732,874.961324 C57.1372732,875.399303 57.2899175,875.727695 57.5951605,875.946685 C57.9004493,876.165675 58.2913288,876.275124 58.767799,876.275124 C59.2591903,876.275124 59.6574846,876.165629 59.9627734,875.946685 C60.2680164,875.727742 60.4206608,875.399303 60.4206608,874.961324 L60.4206608,859.649296 C60.4206608,859.196277 60.2605558,858.807405 59.9404374,858.482773 C59.6202732,858.15814 59.2293938,857.995778 58.767799,857.995778 C58.3210796,857.995778 57.9376149,858.15814 57.6174965,858.482773 C57.2973323,858.807452 57.1372732,859.196277 57.1372732,859.649296 L57.1372732,874.961324 L57.1372732,874.961324 Z M62.2522103,875.686153 C62.2522103,876.124087 62.4085621,876.452525 62.7212657,876.671515 C63.0339693,876.890459 63.4360168,876.999954 63.9274539,876.999954 C64.4039241,876.999954 64.7948035,876.890459 65.1000465,876.671515 C65.4053353,876.452525 65.5579797,876.124087 65.5579797,875.686153 L65.5579797,861.71053 C65.5579797,861.242426 65.3978747,860.842229 65.0777563,860.510031 C64.7575922,860.177833 64.3741733,860.011757 63.9274539,860.011757 C63.4658133,860.011757 63.0712264,860.177833 62.7436474,860.510031 C62.4160685,860.842229 62.2522561,861.242426 62.2522561,861.71053 L62.2522561,875.686153 L62.2522103,875.686153 Z M67.3894835,875.754106 C67.3894835,876.584671 67.9404222,876.999954 69.0423453,876.999954 C70.1442226,876.999954 70.6951613,876.584671 70.6951613,875.754106 L70.6951613,853.103177 C70.6951613,851.834725 70.3154498,851.117461 69.5560268,850.951339 C69.0646355,850.830519 68.5806589,850.97399 68.1041888,851.381707 C67.6276728,851.789423 67.3894377,852.363216 67.3894377,853.103177 L67.3894377,875.754106 L67.3894835,875.754106 Z M72.6161463,876.410983 L72.6161463,851.766772 C72.6161463,850.981556 72.8469208,850.513452 73.3085614,850.362415 C74.3062194,850.12082 75.2964627,850 76.2792454,850 C78.5574686,850 80.6794315,850.543622 82.6449511,851.630867 C84.6105165,852.718111 86.2001236,854.201747 87.4136808,856.081774 C88.6272838,857.961848 89.3308668,860.034361 89.52443,862.299501 C90.4327442,861.906869 91.4006057,861.710577 92.4280603,861.710577 C94.5127661,861.710577 96.2959363,862.458057 97.7775252,863.953019 C99.2591598,865.448026 100,867.244969 100,869.343986 C100,871.458088 99.2591598,873.262597 97.7775252,874.757558 C96.2959363,876.252519 94.5202267,877 92.4503963,877 L73.0181022,876.977349 C72.8840406,876.932047 72.7835287,876.848963 72.7165208,876.728189 C72.6495129,876.607415 72.6161463,876.501587 72.6161463,876.410983 L72.6161463,876.410983 L72.6161463,876.410983 Z" id="Soundcloud"></path>
        </g>
    </g>
</svg>